<mxfile host="65bd71144e">
    <diagram id="JxIOIdqo8CP_60P4Jd2S" name="Page-1">
        <mxGraphModel dx="1631" dy="646" grid="1" gridSize="10" guides="1" tooltips="1" connect="1" arrows="1" fold="1" page="1" pageScale="1" pageWidth="850" pageHeight="1100" math="0" shadow="0">
            <root>
                <mxCell id="0"/>
                <mxCell id="1" parent="0"/>
                <mxCell id="6" value="Frontend Cliente" style="shape=umlActor;verticalLabelPosition=bottom;verticalAlign=top;html=1;outlineConnect=0;" vertex="1" parent="1">
                    <mxGeometry x="160" y="40" width="30" height="60" as="geometry"/>
                </mxCell>
                <mxCell id="10" value="" style="line;strokeWidth=2;html=1;rotation=90;" vertex="1" parent="1">
                    <mxGeometry x="51.25" y="263.75" width="247.5" height="20" as="geometry"/>
                </mxCell>
                <mxCell id="12" value="Login" style="endArrow=classic;html=1;exitX=0;exitY=0.5;exitDx=0;exitDy=0;exitPerimeter=0;verticalAlign=bottom;fontSize=9;entryX=0;entryY=1;entryDx=0;entryDy=0;" edge="1" parent="1" source="10" target="34">
                    <mxGeometry width="50" height="50" relative="1" as="geometry">
                        <mxPoint x="240" y="200" as="sourcePoint"/>
                        <mxPoint x="280" y="150" as="targetPoint"/>
                    </mxGeometry>
                </mxCell>
                <mxCell id="16" value="" style="endArrow=none;dashed=1;html=1;" edge="1" parent="1">
                    <mxGeometry width="50" height="50" relative="1" as="geometry">
                        <mxPoint x="174.70999999999998" y="150" as="sourcePoint"/>
                        <mxPoint x="174.70999999999998" y="120" as="targetPoint"/>
                    </mxGeometry>
                </mxCell>
                <mxCell id="18" value="" style="line;strokeWidth=2;html=1;rotation=90;" vertex="1" parent="1">
                    <mxGeometry x="185" y="265" width="250" height="20" as="geometry"/>
                </mxCell>
                <mxCell id="19" value="" style="endArrow=none;dashed=1;html=1;" edge="1" parent="1" target="20">
                    <mxGeometry width="50" height="50" relative="1" as="geometry">
                        <mxPoint x="310" y="150" as="sourcePoint"/>
                        <mxPoint x="310" y="120" as="targetPoint"/>
                    </mxGeometry>
                </mxCell>
                <mxCell id="20" value="Backend" style="rounded=0;whiteSpace=wrap;html=1;" vertex="1" parent="1">
                    <mxGeometry x="270" y="100" width="80" height="20" as="geometry"/>
                </mxCell>
                <mxCell id="23" value="Autenticar" style="endArrow=classic;html=1;verticalAlign=bottom;fontSize=9;exitX=0.35;exitY=0.227;exitDx=0;exitDy=0;exitPerimeter=0;entryX=0.068;entryY=1.057;entryDx=0;entryDy=0;entryPerimeter=0;" edge="1" parent="1" target="35" source="34">
                    <mxGeometry width="50" height="50" relative="1" as="geometry">
                        <mxPoint x="320" y="170" as="sourcePoint"/>
                        <mxPoint x="411" y="169" as="targetPoint"/>
                    </mxGeometry>
                </mxCell>
                <mxCell id="24" value="" style="line;strokeWidth=2;html=1;rotation=90;" vertex="1" parent="1">
                    <mxGeometry x="315" y="265" width="250" height="20" as="geometry"/>
                </mxCell>
                <mxCell id="25" value="" style="endArrow=none;dashed=1;html=1;" edge="1" parent="1" target="26">
                    <mxGeometry width="50" height="50" relative="1" as="geometry">
                        <mxPoint x="440" y="150" as="sourcePoint"/>
                        <mxPoint x="440" y="120" as="targetPoint"/>
                    </mxGeometry>
                </mxCell>
                <mxCell id="26" value="Supabase" style="rounded=0;whiteSpace=wrap;html=1;" vertex="1" parent="1">
                    <mxGeometry x="400" y="100" width="80" height="20" as="geometry"/>
                </mxCell>
                <mxCell id="27" value="Autorização" style="endArrow=classic;html=1;verticalAlign=bottom;entryX=0.863;entryY=-0.029;entryDx=0;entryDy=0;dashed=1;fontSize=9;exitX=1;exitY=1;exitDx=0;exitDy=0;entryPerimeter=0;" edge="1" parent="1" source="35" target="34">
                    <mxGeometry width="50" height="50" relative="1" as="geometry">
                        <mxPoint x="370" y="200" as="sourcePoint"/>
                        <mxPoint x="285" y="190" as="targetPoint"/>
                    </mxGeometry>
                </mxCell>
                <mxCell id="29" value="Logado" style="endArrow=classic;html=1;verticalAlign=bottom;dashed=1;exitX=1;exitY=1;exitDx=0;exitDy=0;fontSize=9;" edge="1" parent="1" source="34">
                    <mxGeometry width="50" height="50" relative="1" as="geometry">
                        <mxPoint x="279.77999999999986" y="213.35999999999996" as="sourcePoint"/>
                        <mxPoint x="175" y="205" as="targetPoint"/>
                    </mxGeometry>
                </mxCell>
                <mxCell id="30" value="Formulário" style="endArrow=classic;html=1;verticalAlign=bottom;exitX=0;exitY=0.5;exitDx=0;exitDy=0;fontSize=9;entryX=0;entryY=1;entryDx=0;entryDy=0;" edge="1" parent="1" target="42">
                    <mxGeometry width="50" height="50" relative="1" as="geometry">
                        <mxPoint x="175.09000000000003" y="230.23000000000002" as="sourcePoint"/>
                        <mxPoint x="280" y="230" as="targetPoint"/>
                    </mxGeometry>
                </mxCell>
                <mxCell id="34" value="" style="rounded=0;whiteSpace=wrap;html=1;fillColor=light-dark(#E1D5E7,#FFFFFF);strokeColor=#9673a6;rotation=90;" vertex="1" parent="1">
                    <mxGeometry x="282.55" y="172.27" width="54.87" height="10.16" as="geometry"/>
                </mxCell>
                <mxCell id="35" value="" style="rounded=0;whiteSpace=wrap;html=1;fillColor=light-dark(#E1D5E7,#FFFFFF);strokeColor=#9673a6;rotation=90;" vertex="1" parent="1">
                    <mxGeometry x="424.78" y="177.09" width="30.46" height="10.16" as="geometry"/>
                </mxCell>
                <mxCell id="39" value="Dados do formulário" style="endArrow=classic;html=1;verticalAlign=bottom;exitX=0;exitY=0.5;exitDx=0;exitDy=0;fontSize=9;entryX=0.109;entryY=1.017;entryDx=0;entryDy=0;entryPerimeter=0;" edge="1" parent="1" target="40">
                    <mxGeometry width="50" height="50" relative="1" as="geometry">
                        <mxPoint x="310" y="240" as="sourcePoint"/>
                        <mxPoint x="410" y="240" as="targetPoint"/>
                    </mxGeometry>
                </mxCell>
                <mxCell id="40" value="" style="rounded=0;whiteSpace=wrap;html=1;fillColor=light-dark(#E1D5E7,#FFFFFF);strokeColor=#9673a6;rotation=90;" vertex="1" parent="1">
                    <mxGeometry x="429.17" y="243.34" width="21.63" height="10.16" as="geometry"/>
                </mxCell>
                <mxCell id="41" value="Json formulário" style="edgeStyle=none;html=1;verticalAlign=bottom;fontSize=9;dashed=1;exitX=1;exitY=1;exitDx=0;exitDy=0;entryX=0.25;entryY=0;entryDx=0;entryDy=0;" edge="1" parent="1" source="40" target="42">
                    <mxGeometry relative="1" as="geometry">
                        <mxPoint x="430" y="260" as="sourcePoint"/>
                        <mxPoint x="330" y="260" as="targetPoint"/>
                    </mxGeometry>
                </mxCell>
                <mxCell id="42" value="" style="rounded=0;whiteSpace=wrap;html=1;fillColor=light-dark(#E1D5E7,#FFFFFF);strokeColor=#9673a6;rotation=90;" vertex="1" parent="1">
                    <mxGeometry x="253.79" y="281.36" width="112.41" height="10.16" as="geometry"/>
                </mxCell>
                <mxCell id="43" value="Perguntas formulário" style="edgeStyle=none;html=1;entryX=0.462;entryY=0.44;entryDx=0;entryDy=0;entryPerimeter=0;verticalAlign=bottom;fontSize=9;dashed=1;exitX=0.3;exitY=1.018;exitDx=0;exitDy=0;exitPerimeter=0;" edge="1" parent="1" source="42" target="10">
                    <mxGeometry relative="1" as="geometry">
                        <mxPoint x="276" y="269" as="sourcePoint"/>
                        <mxPoint x="180" y="269" as="targetPoint"/>
                    </mxGeometry>
                </mxCell>
                <mxCell id="44" value="Respostas Formulário" style="endArrow=classic;html=1;verticalAlign=bottom;fontSize=9;exitX=0.546;exitY=0.393;exitDx=0;exitDy=0;exitPerimeter=0;entryX=0.49;entryY=1.018;entryDx=0;entryDy=0;entryPerimeter=0;" edge="1" parent="1" source="10" target="42">
                    <mxGeometry width="50" height="50" relative="1" as="geometry">
                        <mxPoint x="180" y="290" as="sourcePoint"/>
                        <mxPoint x="275" y="290" as="targetPoint"/>
                    </mxGeometry>
                </mxCell>
                <mxCell id="45" value="Json formulario preenchido" style="endArrow=classic;html=1;verticalAlign=bottom;fontSize=9;exitX=0.672;exitY=0.034;exitDx=0;exitDy=0;exitPerimeter=0;entryX=0;entryY=1;entryDx=0;entryDy=0;labelBackgroundColor=none;" edge="1" parent="1" source="42" target="48">
                    <mxGeometry width="50" height="50" relative="1" as="geometry">
                        <mxPoint x="307.59000000000003" y="310.42" as="sourcePoint"/>
                        <mxPoint x="435.00000000000006" y="310.41999999999996" as="targetPoint"/>
                    </mxGeometry>
                </mxCell>
                <mxCell id="48" value="" style="rounded=0;whiteSpace=wrap;html=1;fillColor=light-dark(#E1D5E7,#FFFFFF);strokeColor=#9673a6;rotation=90;" vertex="1" parent="1">
                    <mxGeometry x="429.59" y="310.42" width="20.8" height="10.16" as="geometry"/>
                </mxCell>
                <mxCell id="49" value="Confirmação do salvamento" style="edgeStyle=none;html=1;verticalAlign=bottom;fontSize=9;dashed=1;exitX=1;exitY=1;exitDx=0;exitDy=0;entryX=0.853;entryY=-0.004;entryDx=0;entryDy=0;entryPerimeter=0;labelBackgroundColor=none;" edge="1" parent="1" target="42">
                    <mxGeometry relative="1" as="geometry">
                        <mxPoint x="435" y="325.58" as="sourcePoint"/>
                        <mxPoint x="315" y="325.58" as="targetPoint"/>
                    </mxGeometry>
                </mxCell>
                <mxCell id="50" value="Confirmação do preenchimento" style="edgeStyle=none;html=1;verticalAlign=bottom;fontSize=9;dashed=1;exitX=1;exitY=1;exitDx=0;exitDy=0;entryX=0.768;entryY=0.37;entryDx=0;entryDy=0;entryPerimeter=0;labelBackgroundColor=none;" edge="1" parent="1">
                    <mxGeometry relative="1" as="geometry">
                        <mxPoint x="305" y="342" as="sourcePoint"/>
                        <mxPoint x="177.60000000000002" y="342.08000000000004" as="targetPoint"/>
                    </mxGeometry>
                </mxCell>
                <mxCell id="103" value="Frontend Funcionário" style="shape=umlActor;verticalLabelPosition=bottom;verticalAlign=top;html=1;outlineConnect=0;" vertex="1" parent="1">
                    <mxGeometry x="628.75" y="40" width="30" height="60" as="geometry"/>
                </mxCell>
                <mxCell id="105" value="Login" style="endArrow=classic;html=1;exitX=0;exitY=0.5;exitDx=0;exitDy=0;exitPerimeter=0;verticalAlign=bottom;fontSize=9;entryX=0;entryY=1;entryDx=0;entryDy=0;" edge="1" parent="1" target="117">
                    <mxGeometry width="50" height="50" relative="1" as="geometry">
                        <mxPoint x="643.75" y="150" as="sourcePoint"/>
                        <mxPoint x="748.75" y="150" as="targetPoint"/>
                    </mxGeometry>
                </mxCell>
                <mxCell id="106" value="" style="endArrow=none;dashed=1;html=1;" edge="1" parent="1">
                    <mxGeometry width="50" height="50" relative="1" as="geometry">
                        <mxPoint x="643.46" y="150" as="sourcePoint"/>
                        <mxPoint x="643.46" y="120" as="targetPoint"/>
                    </mxGeometry>
                </mxCell>
                <mxCell id="108" value="" style="endArrow=none;dashed=1;html=1;" edge="1" parent="1" target="109">
                    <mxGeometry width="50" height="50" relative="1" as="geometry">
                        <mxPoint x="778.75" y="150" as="sourcePoint"/>
                        <mxPoint x="778.75" y="120" as="targetPoint"/>
                    </mxGeometry>
                </mxCell>
                <mxCell id="109" value="Backend" style="rounded=0;whiteSpace=wrap;html=1;" vertex="1" parent="1">
                    <mxGeometry x="738.75" y="100" width="80" height="20" as="geometry"/>
                </mxCell>
                <mxCell id="110" value="Autenticar" style="endArrow=classic;html=1;verticalAlign=bottom;fontSize=9;exitX=0.35;exitY=0.227;exitDx=0;exitDy=0;exitPerimeter=0;entryX=0.068;entryY=1.057;entryDx=0;entryDy=0;entryPerimeter=0;" edge="1" parent="1" source="117" target="118">
                    <mxGeometry width="50" height="50" relative="1" as="geometry">
                        <mxPoint x="788.75" y="170" as="sourcePoint"/>
                        <mxPoint x="879.75" y="169" as="targetPoint"/>
                    </mxGeometry>
                </mxCell>
                <mxCell id="112" value="" style="endArrow=none;dashed=1;html=1;" edge="1" parent="1" target="113">
                    <mxGeometry width="50" height="50" relative="1" as="geometry">
                        <mxPoint x="908.75" y="150" as="sourcePoint"/>
                        <mxPoint x="908.75" y="120" as="targetPoint"/>
                    </mxGeometry>
                </mxCell>
                <mxCell id="113" value="Supabase" style="rounded=0;whiteSpace=wrap;html=1;" vertex="1" parent="1">
                    <mxGeometry x="868.75" y="100" width="80" height="20" as="geometry"/>
                </mxCell>
                <mxCell id="114" value="Autorização" style="endArrow=classic;html=1;verticalAlign=bottom;entryX=0.863;entryY=-0.029;entryDx=0;entryDy=0;dashed=1;fontSize=9;exitX=1;exitY=1;exitDx=0;exitDy=0;entryPerimeter=0;" edge="1" parent="1" source="118" target="117">
                    <mxGeometry width="50" height="50" relative="1" as="geometry">
                        <mxPoint x="838.75" y="200" as="sourcePoint"/>
                        <mxPoint x="753.75" y="190" as="targetPoint"/>
                    </mxGeometry>
                </mxCell>
                <mxCell id="115" value="Logado" style="endArrow=classic;html=1;verticalAlign=bottom;dashed=1;exitX=1;exitY=1;exitDx=0;exitDy=0;fontSize=9;" edge="1" parent="1" source="117">
                    <mxGeometry width="50" height="50" relative="1" as="geometry">
                        <mxPoint x="748.5299999999999" y="213.35999999999996" as="sourcePoint"/>
                        <mxPoint x="643.75" y="205" as="targetPoint"/>
                    </mxGeometry>
                </mxCell>
                <mxCell id="116" value="Seleciona um cliente" style="endArrow=classic;html=1;verticalAlign=bottom;exitX=0;exitY=0.5;exitDx=0;exitDy=0;fontSize=9;entryX=0;entryY=1;entryDx=0;entryDy=0;" edge="1" parent="1">
                    <mxGeometry width="50" height="50" relative="1" as="geometry">
                        <mxPoint x="643.84" y="230.23000000000002" as="sourcePoint"/>
                        <mxPoint x="773.6649999999997" y="230.2349999999999" as="targetPoint"/>
                    </mxGeometry>
                </mxCell>
                <mxCell id="117" value="" style="rounded=0;whiteSpace=wrap;html=1;fillColor=light-dark(#E1D5E7,#FFFFFF);strokeColor=#9673a6;rotation=90;" vertex="1" parent="1">
                    <mxGeometry x="751.3" y="172.27" width="54.87" height="10.16" as="geometry"/>
                </mxCell>
                <mxCell id="118" value="" style="rounded=0;whiteSpace=wrap;html=1;fillColor=light-dark(#E1D5E7,#FFFFFF);strokeColor=#9673a6;rotation=90;" vertex="1" parent="1">
                    <mxGeometry x="893.53" y="177.09" width="30.46" height="10.16" as="geometry"/>
                </mxCell>
                <mxCell id="119" value="Dados do cliente" style="endArrow=classic;html=1;verticalAlign=bottom;exitX=0;exitY=0.5;exitDx=0;exitDy=0;fontSize=9;entryX=0.109;entryY=1.017;entryDx=0;entryDy=0;entryPerimeter=0;" edge="1" parent="1" target="120">
                    <mxGeometry width="50" height="50" relative="1" as="geometry">
                        <mxPoint x="778.75" y="240" as="sourcePoint"/>
                        <mxPoint x="878.75" y="240" as="targetPoint"/>
                    </mxGeometry>
                </mxCell>
                <mxCell id="120" value="" style="rounded=0;whiteSpace=wrap;html=1;fillColor=light-dark(#E1D5E7,#FFFFFF);strokeColor=#9673a6;rotation=90;" vertex="1" parent="1">
                    <mxGeometry x="897.9200000000001" y="243.34" width="21.63" height="10.16" as="geometry"/>
                </mxCell>
                <mxCell id="121" value="Nome + Json formulário" style="edgeStyle=none;html=1;verticalAlign=bottom;fontSize=9;dashed=1;exitX=1;exitY=1;exitDx=0;exitDy=0;entryX=0.25;entryY=0;entryDx=0;entryDy=0;" edge="1" parent="1" source="120">
                    <mxGeometry relative="1" as="geometry">
                        <mxPoint x="898.75" y="260" as="sourcePoint"/>
                        <mxPoint x="783.8249999999998" y="258.33750000000003" as="targetPoint"/>
                    </mxGeometry>
                </mxCell>
                <mxCell id="123" value="Dados do cliente" style="edgeStyle=none;html=1;entryX=0.462;entryY=0.44;entryDx=0;entryDy=0;entryPerimeter=0;verticalAlign=bottom;fontSize=9;dashed=1;exitX=0.3;exitY=1.018;exitDx=0;exitDy=0;exitPerimeter=0;" edge="1" parent="1">
                    <mxGeometry x="0.001" relative="1" as="geometry">
                        <mxPoint x="773.4821199999999" y="263.958" as="sourcePoint"/>
                        <mxPoint x="644.95" y="264.34499999999997" as="targetPoint"/>
                        <mxPoint as="offset"/>
                    </mxGeometry>
                </mxCell>
                <mxCell id="124" value="Editar informações" style="endArrow=classic;html=1;verticalAlign=bottom;fontSize=9;exitX=0.546;exitY=0.393;exitDx=0;exitDy=0;exitPerimeter=0;entryX=0.49;entryY=1.018;entryDx=0;entryDy=0;entryPerimeter=0;" edge="1" parent="1">
                    <mxGeometry width="50" height="50" relative="1" as="geometry">
                        <mxPoint x="645.8900000000001" y="285.13500000000005" as="sourcePoint"/>
                        <mxPoint x="773.4821199999999" y="285.3159" as="targetPoint"/>
                    </mxGeometry>
                </mxCell>
                <mxCell id="125" value="Json formulario preenchido" style="endArrow=classic;html=1;verticalAlign=bottom;fontSize=9;exitX=0.672;exitY=0.034;exitDx=0;exitDy=0;exitPerimeter=0;entryX=0;entryY=1;entryDx=0;entryDy=0;labelBackgroundColor=none;" edge="1" parent="1" target="126">
                    <mxGeometry width="50" height="50" relative="1" as="geometry">
                        <mxPoint x="783.47956" y="305.77452" as="sourcePoint"/>
                        <mxPoint x="903.75" y="310.41999999999996" as="targetPoint"/>
                    </mxGeometry>
                </mxCell>
                <mxCell id="126" value="" style="rounded=0;whiteSpace=wrap;html=1;fillColor=light-dark(#E1D5E7,#FFFFFF);strokeColor=#9673a6;rotation=90;" vertex="1" parent="1">
                    <mxGeometry x="898.3399999999999" y="310.42" width="20.8" height="10.16" as="geometry"/>
                </mxCell>
                <mxCell id="127" value="Confirmação do salvamento" style="edgeStyle=none;html=1;verticalAlign=bottom;fontSize=9;dashed=1;exitX=1;exitY=1;exitDx=0;exitDy=0;entryX=0.853;entryY=-0.004;entryDx=0;entryDy=0;entryPerimeter=0;labelBackgroundColor=none;" edge="1" parent="1">
                    <mxGeometry relative="1" as="geometry">
                        <mxPoint x="903.75" y="325.58" as="sourcePoint"/>
                        <mxPoint x="783.86564" y="326.12073000000004" as="targetPoint"/>
                    </mxGeometry>
                </mxCell>
                <mxCell id="128" value="Confirmação do preenchimento" style="edgeStyle=none;html=1;verticalAlign=bottom;fontSize=9;dashed=1;exitX=1;exitY=1;exitDx=0;exitDy=0;entryX=0.768;entryY=0.37;entryDx=0;entryDy=0;entryPerimeter=0;labelBackgroundColor=none;" edge="1" parent="1">
                    <mxGeometry relative="1" as="geometry">
                        <mxPoint x="773.75" y="342" as="sourcePoint"/>
                        <mxPoint x="646.35" y="342.08000000000004" as="targetPoint"/>
                    </mxGeometry>
                </mxCell>
                <mxCell id="137" value="" style="rounded=0;whiteSpace=wrap;html=1;fillColor=light-dark(#E1D5E7,#FFFFFF);strokeColor=#9673a6;rotation=90;" vertex="1" parent="1">
                    <mxGeometry x="760.03" y="243.88" width="37.45" height="10.16" as="geometry"/>
                </mxCell>
                <mxCell id="138" value="" style="rounded=0;whiteSpace=wrap;html=1;fillColor=light-dark(#E1D5E7,#FFFFFF);strokeColor=#9673a6;rotation=90;" vertex="1" parent="1">
                    <mxGeometry x="748.74" y="310.53" width="59.99" height="10.16" as="geometry"/>
                </mxCell>
                <mxCell id="139" value="Upload documento" style="endArrow=classic;html=1;verticalAlign=bottom;fontSize=9;exitX=0.546;exitY=0.393;exitDx=0;exitDy=0;exitPerimeter=0;entryX=0.49;entryY=1.018;entryDx=0;entryDy=0;entryPerimeter=0;" edge="1" parent="1">
                    <mxGeometry width="50" height="50" relative="1" as="geometry">
                        <mxPoint x="646.41" y="370" as="sourcePoint"/>
                        <mxPoint x="773.8921199999999" y="370.3159" as="targetPoint"/>
                    </mxGeometry>
                </mxCell>
                <mxCell id="140" value="Salvar documento" style="endArrow=classic;html=1;verticalAlign=bottom;fontSize=9;exitX=0.672;exitY=0.034;exitDx=0;exitDy=0;exitPerimeter=0;entryX=0;entryY=1;entryDx=0;entryDy=0;labelBackgroundColor=none;" edge="1" parent="1" target="141">
                    <mxGeometry width="50" height="50" relative="1" as="geometry">
                        <mxPoint x="783.88956" y="390.77452" as="sourcePoint"/>
                        <mxPoint x="904.16" y="395.41999999999996" as="targetPoint"/>
                    </mxGeometry>
                </mxCell>
                <mxCell id="141" value="" style="rounded=0;whiteSpace=wrap;html=1;fillColor=light-dark(#E1D5E7,#FFFFFF);strokeColor=#9673a6;rotation=90;" vertex="1" parent="1">
                    <mxGeometry x="898.7499999999999" y="395.42" width="20.8" height="10.16" as="geometry"/>
                </mxCell>
                <mxCell id="142" value="Confirmação do salvamento" style="edgeStyle=none;html=1;verticalAlign=bottom;fontSize=9;dashed=1;exitX=1;exitY=1;exitDx=0;exitDy=0;entryX=0.853;entryY=-0.004;entryDx=0;entryDy=0;entryPerimeter=0;labelBackgroundColor=none;" edge="1" parent="1">
                    <mxGeometry relative="1" as="geometry">
                        <mxPoint x="904.16" y="410.58" as="sourcePoint"/>
                        <mxPoint x="784.27564" y="411.12073000000004" as="targetPoint"/>
                    </mxGeometry>
                </mxCell>
                <mxCell id="143" value="Confirmação do salvamento" style="edgeStyle=none;html=1;verticalAlign=bottom;fontSize=9;dashed=1;exitX=1;exitY=1;exitDx=0;exitDy=0;entryX=0.768;entryY=0.37;entryDx=0;entryDy=0;entryPerimeter=0;labelBackgroundColor=none;" edge="1" parent="1">
                    <mxGeometry relative="1" as="geometry">
                        <mxPoint x="774.16" y="427" as="sourcePoint"/>
                        <mxPoint x="646.76" y="427.08000000000004" as="targetPoint"/>
                    </mxGeometry>
                </mxCell>
                <mxCell id="144" value="" style="rounded=0;whiteSpace=wrap;html=1;fillColor=light-dark(#E1D5E7,#FFFFFF);strokeColor=#9673a6;rotation=90;" vertex="1" parent="1">
                    <mxGeometry x="749.15" y="395.53" width="59.99" height="10.16" as="geometry"/>
                </mxCell>
                <mxCell id="145" value="" style="line;strokeWidth=2;html=1;rotation=90;" vertex="1" parent="1">
                    <mxGeometry x="490.63" y="293.13" width="306.25" height="20" as="geometry"/>
                </mxCell>
                <mxCell id="146" value="" style="line;strokeWidth=2;html=1;rotation=90;" vertex="1" parent="1">
                    <mxGeometry x="623.11" y="295.63" width="311.26" height="20" as="geometry"/>
                </mxCell>
                <mxCell id="147" value="" style="line;strokeWidth=2;html=1;rotation=90;" vertex="1" parent="1">
                    <mxGeometry x="753.11" y="295.63" width="311.26" height="20" as="geometry"/>
                </mxCell>
            </root>
        </mxGraphModel>
    </diagram>
</mxfile>